<?xml version="1.0" encoding="UTF-8" standalone="no"?><svg xmlns="http://www.w3.org/2000/svg" xmlns:xlink="http://www.w3.org/1999/xlink" contentScriptType="application/ecmascript" contentStyleType="text/css" height="445px" preserveAspectRatio="none" style="width:677px;height:445px;" version="1.1" viewBox="0 0 677 445" width="677px" zoomAndPan="magnify"><defs><filter height="300%" id="f1p6g4p5njo576" width="300%" x="-1" y="-1"><feGaussianBlur result="blurOut" stdDeviation="2.0"/><feColorMatrix in="blurOut" result="blurOut2" type="matrix" values="0 0 0 0 0 0 0 0 0 0 0 0 0 0 0 0 0 0 .4 0"/><feOffset dx="4.0" dy="4.0" in="blurOut2" result="blurOut3"/><feBlend in="SourceGraphic" in2="blurOut3" mode="normal"/></filter></defs><g><rect fill="#FFFFFF" filter="url(#f1p6g4p5njo576)" height="312.9297" style="stroke:#383838;stroke-width:1.0;" width="10" x="218" y="71.4297"/><rect fill="#FFFFFF" filter="url(#f1p6g4p5njo576)" height="141.3984" style="stroke:#383838;stroke-width:1.0;" width="10" x="343.5" y="100.5625"/><rect fill="#FFFFFF" filter="url(#f1p6g4p5njo576)" height="14" style="stroke:#383838;stroke-width:1.0;" width="10" x="343.5" y="300.2266"/><rect fill="#FFFFFF" filter="url(#f1p6g4p5njo576)" height="14" style="stroke:#383838;stroke-width:1.0;" width="10" x="499.5" y="129.6953"/><rect fill="#FFFFFF" filter="url(#f1p6g4p5njo576)" height="57.1328" style="stroke:#383838;stroke-width:1.0;" width="10" x="611.5" y="271.0938"/><line style="stroke:#383838;stroke-width:1.0;stroke-dasharray:5.0,5.0;" x1="30" x2="30" y1="40.2969" y2="402.3594"/><line style="stroke:#383838;stroke-width:1.0;stroke-dasharray:5.0,5.0;" x1="223" x2="223" y1="40.2969" y2="402.3594"/><line style="stroke:#383838;stroke-width:1.0;stroke-dasharray:5.0,5.0;" x1="348" x2="348" y1="40.2969" y2="402.3594"/><line style="stroke:#383838;stroke-width:1.0;stroke-dasharray:5.0,5.0;" x1="504" x2="504" y1="40.2969" y2="402.3594"/><line style="stroke:#383838;stroke-width:1.0;stroke-dasharray:5.0,5.0;" x1="616" x2="616" y1="40.2969" y2="402.3594"/><rect fill="#F8F8F8" filter="url(#f1p6g4p5njo576)" height="30.2969" style="stroke:#383838;stroke-width:1.5;" width="46" x="5" y="5"/><text fill="#000000" font-family="sans-serif" font-size="14" lengthAdjust="spacing" textLength="32" x="12" y="24.9951">User</text><rect fill="#F8F8F8" filter="url(#f1p6g4p5njo576)" height="30.2969" style="stroke:#383838;stroke-width:1.5;" width="46" x="5" y="401.3594"/><text fill="#000000" font-family="sans-serif" font-size="14" lengthAdjust="spacing" textLength="32" x="12" y="421.3545">User</text><rect fill="#F8F8F8" filter="url(#f1p6g4p5njo576)" height="30.2969" style="stroke:#383838;stroke-width:1.5;" width="94" x="174" y="5"/><text fill="#000000" font-family="sans-serif" font-size="14" lengthAdjust="spacing" textLength="80" x="181" y="24.9951">ProjectView</text><rect fill="#F8F8F8" filter="url(#f1p6g4p5njo576)" height="30.2969" style="stroke:#383838;stroke-width:1.5;" width="94" x="174" y="401.3594"/><text fill="#000000" font-family="sans-serif" font-size="14" lengthAdjust="spacing" textLength="80" x="181" y="421.3545">ProjectView</text><rect fill="#F8F8F8" filter="url(#f1p6g4p5njo576)" height="30.2969" style="stroke:#383838;stroke-width:1.5;" width="129" x="282" y="5"/><text fill="#000000" font-family="sans-serif" font-size="14" lengthAdjust="spacing" textLength="115" x="289" y="24.9951">ProjectController</text><rect fill="#F8F8F8" filter="url(#f1p6g4p5njo576)" height="30.2969" style="stroke:#383838;stroke-width:1.5;" width="129" x="282" y="401.3594"/><text fill="#000000" font-family="sans-serif" font-size="14" lengthAdjust="spacing" textLength="115" x="289" y="421.3545">ProjectController</text><rect fill="#F8F8F8" filter="url(#f1p6g4p5njo576)" height="30.2969" style="stroke:#383838;stroke-width:1.5;" width="99" x="453" y="5"/><text fill="#000000" font-family="sans-serif" font-size="14" lengthAdjust="spacing" textLength="85" x="460" y="24.9951">ProjectStore</text><rect fill="#F8F8F8" filter="url(#f1p6g4p5njo576)" height="30.2969" style="stroke:#383838;stroke-width:1.5;" width="99" x="453" y="401.3594"/><text fill="#000000" font-family="sans-serif" font-size="14" lengthAdjust="spacing" textLength="85" x="460" y="421.3545">ProjectStore</text><rect fill="#F8F8F8" filter="url(#f1p6g4p5njo576)" height="30.2969" style="stroke:#383838;stroke-width:1.5;" width="97" x="566" y="5"/><text fill="#000000" font-family="sans-serif" font-size="14" lengthAdjust="spacing" textLength="83" x="573" y="24.9951">BuildThread</text><rect fill="#F8F8F8" filter="url(#f1p6g4p5njo576)" height="30.2969" style="stroke:#383838;stroke-width:1.5;" width="97" x="566" y="401.3594"/><text fill="#000000" font-family="sans-serif" font-size="14" lengthAdjust="spacing" textLength="83" x="573" y="421.3545">BuildThread</text><rect fill="#FFFFFF" filter="url(#f1p6g4p5njo576)" height="312.9297" style="stroke:#383838;stroke-width:1.0;" width="10" x="218" y="71.4297"/><rect fill="#FFFFFF" filter="url(#f1p6g4p5njo576)" height="141.3984" style="stroke:#383838;stroke-width:1.0;" width="10" x="343.5" y="100.5625"/><rect fill="#FFFFFF" filter="url(#f1p6g4p5njo576)" height="14" style="stroke:#383838;stroke-width:1.0;" width="10" x="343.5" y="300.2266"/><rect fill="#FFFFFF" filter="url(#f1p6g4p5njo576)" height="14" style="stroke:#383838;stroke-width:1.0;" width="10" x="499.5" y="129.6953"/><rect fill="#FFFFFF" filter="url(#f1p6g4p5njo576)" height="57.1328" style="stroke:#383838;stroke-width:1.0;" width="10" x="611.5" y="271.0938"/><polygon fill="#383838" points="206,67.4297,216,71.4297,206,75.4297,210,71.4297" style="stroke:#383838;stroke-width:1.0;"/><line style="stroke:#383838;stroke-width:1.0;" x1="30" x2="212" y1="71.4297" y2="71.4297"/><text fill="#000000" font-family="sans-serif" font-size="13" lengthAdjust="spacing" textLength="169" x="37" y="66.3638">click 'Build' or enter Ctrl+B</text><polygon fill="#383838" points="331.5,96.5625,341.5,100.5625,331.5,104.5625,335.5,100.5625" style="stroke:#383838;stroke-width:1.0;"/><line style="stroke:#383838;stroke-width:1.0;" x1="228" x2="337.5" y1="100.5625" y2="100.5625"/><text fill="#000000" font-family="sans-serif" font-size="13" lengthAdjust="spacing" textLength="91" x="235" y="95.4966">build_project()</text><polygon fill="#383838" points="487.5,125.6953,497.5,129.6953,487.5,133.6953,491.5,129.6953" style="stroke:#383838;stroke-width:1.0;"/><line style="stroke:#383838;stroke-width:1.0;" x1="353.5" x2="493.5" y1="129.6953" y2="129.6953"/><text fill="#000000" font-family="sans-serif" font-size="13" lengthAdjust="spacing" textLength="127" x="360.5" y="124.6294">get_root_resource()</text><polygon fill="#383838" points="364.5,139.6953,354.5,143.6953,364.5,147.6953,360.5,143.6953" style="stroke:#383838;stroke-width:1.0;"/><line style="stroke:#383838;stroke-width:1.0;stroke-dasharray:2.0,2.0;" x1="358.5" x2="503.5" y1="143.6953" y2="143.6953"/><line style="stroke:#383838;stroke-width:1.0;" x1="353.5" x2="395.5" y1="172.8281" y2="172.8281"/><line style="stroke:#383838;stroke-width:1.0;" x1="395.5" x2="395.5" y1="172.8281" y2="185.8281"/><line style="stroke:#383838;stroke-width:1.0;" x1="354.5" x2="395.5" y1="185.8281" y2="185.8281"/><polygon fill="#383838" points="364.5,181.8281,354.5,185.8281,364.5,189.8281,360.5,185.8281" style="stroke:#383838;stroke-width:1.0;"/><text fill="#000000" font-family="sans-serif" font-size="13" lengthAdjust="spacing" textLength="101" x="360.5" y="167.7622">get_resources()</text><line style="stroke:#383838;stroke-width:1.0;" x1="353.5" x2="395.5" y1="214.9609" y2="214.9609"/><line style="stroke:#383838;stroke-width:1.0;" x1="395.5" x2="395.5" y1="214.9609" y2="227.9609"/><line style="stroke:#383838;stroke-width:1.0;" x1="354.5" x2="395.5" y1="227.9609" y2="227.9609"/><polygon fill="#383838" points="364.5,223.9609,354.5,227.9609,364.5,231.9609,360.5,227.9609" style="stroke:#383838;stroke-width:1.0;"/><text fill="#000000" font-family="sans-serif" font-size="13" lengthAdjust="spacing" textLength="122" x="360.5" y="209.895">get_project_by_id()</text><polygon fill="#383838" points="239,237.9609,229,241.9609,239,245.9609,235,241.9609" style="stroke:#383838;stroke-width:1.0;"/><line style="stroke:#383838;stroke-width:1.0;stroke-dasharray:2.0,2.0;" x1="233" x2="347.5" y1="241.9609" y2="241.9609"/><polygon fill="#383838" points="599.5,267.0938,609.5,271.0938,599.5,275.0938,603.5,271.0938" style="stroke:#383838;stroke-width:1.0;"/><line style="stroke:#383838;stroke-width:1.0;" x1="228" x2="605.5" y1="271.0938" y2="271.0938"/><text fill="#000000" font-family="sans-serif" font-size="13" lengthAdjust="spacing" textLength="31" x="235" y="266.0278">run()</text><polygon fill="#383838" points="364.5,296.2266,354.5,300.2266,364.5,304.2266,360.5,300.2266" style="stroke:#383838;stroke-width:1.0;"/><line style="stroke:#383838;stroke-width:1.0;" x1="358.5" x2="610.5" y1="300.2266" y2="300.2266"/><text fill="#000000" font-family="sans-serif" font-size="13" lengthAdjust="spacing" textLength="74" x="370.5" y="295.1606">_build_pdf()</text><polygon fill="#383838" points="599.5,310.2266,609.5,314.2266,599.5,318.2266,603.5,314.2266" style="stroke:#383838;stroke-width:1.0;"/><line style="stroke:#383838;stroke-width:1.0;stroke-dasharray:2.0,2.0;" x1="348.5" x2="605.5" y1="314.2266" y2="314.2266"/><polygon fill="#383838" points="239,324.2266,229,328.2266,239,332.2266,235,328.2266" style="stroke:#383838;stroke-width:1.0;"/><line style="stroke:#383838;stroke-width:1.0;stroke-dasharray:2.0,2.0;" x1="233" x2="615.5" y1="328.2266" y2="328.2266"/><line style="stroke:#383838;stroke-width:1.0;" x1="228" x2="270" y1="357.3594" y2="357.3594"/><line style="stroke:#383838;stroke-width:1.0;" x1="270" x2="270" y1="357.3594" y2="370.3594"/><line style="stroke:#383838;stroke-width:1.0;" x1="229" x2="270" y1="370.3594" y2="370.3594"/><polygon fill="#383838" points="239,366.3594,229,370.3594,239,374.3594,235,370.3594" style="stroke:#383838;stroke-width:1.0;"/><text fill="#000000" font-family="sans-serif" font-size="13" lengthAdjust="spacing" textLength="55" x="235" y="352.2935">refresh()</text><polygon fill="#383838" points="41,380.3594,31,384.3594,41,388.3594,37,384.3594" style="stroke:#383838;stroke-width:1.0;"/><line style="stroke:#383838;stroke-width:1.0;stroke-dasharray:2.0,2.0;" x1="35" x2="222" y1="384.3594" y2="384.3594"/><!--MD5=[eede39646f5d98b0c77e11be95ee3555]
@startuml

skinparam monochrome true

User -> ProjectView: click 'Build' or enter Ctrl+B
activate ProjectView

ProjectView -> ProjectController: build_project()
activate ProjectController

ProjectController -> ProjectStore: get_root_resource()
activate ProjectStore

ProjectStore - -> ProjectController:
deactivate ProjectStore

ProjectController -> ProjectController: get_resources()
ProjectController -> ProjectController: get_project_by_id()

ProjectController - -> ProjectView:
deactivate ProjectController

ProjectView -> BuildThread: run()
activate BuildThread

BuildThread -> ProjectController: _build_pdf()
activate ProjectController

ProjectController - -> BuildThread:
deactivate ProjectController

BuildThread - -> ProjectView:
deactivate BuildThread

ProjectView -> ProjectView: refresh()

ProjectView - -> User:
deactivate ProjectView

@enduml

PlantUML version 1.2021.4(Sun Apr 04 11:49:39 EEST 2021)
(GPL source distribution)
Java Runtime: OpenJDK Runtime Environment
JVM: OpenJDK 64-Bit Server VM
Default Encoding: UTF-8
Language: en
Country: GB
--></g></svg>