<?xml version="1.0" encoding="UTF-8" standalone="no"?><svg xmlns="http://www.w3.org/2000/svg" xmlns:xlink="http://www.w3.org/1999/xlink" contentScriptType="application/ecmascript" contentStyleType="text/css" height="237px" preserveAspectRatio="none" style="width:325px;height:237px;" version="1.1" viewBox="0 0 325 237" width="325px" zoomAndPan="magnify"><defs><filter height="300%" id="f1waaizb4kdecz" width="300%" x="-1" y="-1"><feGaussianBlur result="blurOut" stdDeviation="2.0"/><feColorMatrix in="blurOut" result="blurOut2" type="matrix" values="0 0 0 0 0 0 0 0 0 0 0 0 0 0 0 0 0 0 .4 0"/><feOffset dx="4.0" dy="4.0" in="blurOut2" result="blurOut3"/><feBlend in="SourceGraphic" in2="blurOut3" mode="normal"/></filter></defs><g><!--MD5=[46f5cf87f89447cb7282802b2b81fb05]
class ProjectController--><rect codeLine="4" fill="#F8F8F8" filter="url(#f1waaizb4kdecz)" height="32" id="ProjectController" style="stroke:#383838;stroke-width:1.5;" width="137" x="97" y="7"/><ellipse cx="112" cy="23" fill="#C2C2C2" rx="11" ry="11" style="stroke:#383838;stroke-width:1.0;"/><path d="M114.9688,28.6406 Q114.3906,28.9375 113.75,29.0781 Q113.1094,29.2344 112.4063,29.2344 Q109.9063,29.2344 108.5781,27.5938 Q107.2656,25.9375 107.2656,22.8125 Q107.2656,19.6875 108.5781,18.0313 Q109.9063,16.375 112.4063,16.375 Q113.1094,16.375 113.75,16.5313 Q114.4063,16.6875 114.9688,16.9844 L114.9688,19.7031 Q114.3438,19.125 113.75,18.8594 Q113.1563,18.5781 112.5313,18.5781 Q111.1875,18.5781 110.5,19.6563 Q109.8125,20.7188 109.8125,22.8125 Q109.8125,24.9063 110.5,25.9844 Q111.1875,27.0469 112.5313,27.0469 Q113.1563,27.0469 113.75,26.7813 Q114.3438,26.5 114.9688,25.9219 L114.9688,28.6406 Z " fill="#000000"/><text fill="#000000" font-family="sans-serif" font-size="12" lengthAdjust="spacing" textLength="105" x="126" y="27.1543">ProjectController</text><!--MD5=[30900a2c4494eb62745ccdd0b1edadf0]
class TemplateController--><rect codeLine="8" fill="#F8F8F8" filter="url(#f1waaizb4kdecz)" height="32" id="TemplateController" style="stroke:#383838;stroke-width:1.5;" width="151" x="7" y="99"/><ellipse cx="22" cy="115" fill="#C2C2C2" rx="11" ry="11" style="stroke:#383838;stroke-width:1.0;"/><path d="M24.9688,120.6406 Q24.3906,120.9375 23.75,121.0781 Q23.1094,121.2344 22.4063,121.2344 Q19.9063,121.2344 18.5781,119.5938 Q17.2656,117.9375 17.2656,114.8125 Q17.2656,111.6875 18.5781,110.0313 Q19.9063,108.375 22.4063,108.375 Q23.1094,108.375 23.75,108.5313 Q24.4063,108.6875 24.9688,108.9844 L24.9688,111.7031 Q24.3438,111.125 23.75,110.8594 Q23.1563,110.5781 22.5313,110.5781 Q21.1875,110.5781 20.5,111.6563 Q19.8125,112.7188 19.8125,114.8125 Q19.8125,116.9063 20.5,117.9844 Q21.1875,119.0469 22.5313,119.0469 Q23.1563,119.0469 23.75,118.7813 Q24.3438,118.5 24.9688,117.9219 L24.9688,120.6406 Z " fill="#000000"/><text fill="#000000" font-family="sans-serif" font-size="12" lengthAdjust="spacing" textLength="119" x="36" y="119.1543">TemplateController</text><!--MD5=[0cf43f64de24b70e8ffe65ff9ee7abee]
class ProjectStore--><rect codeLine="12" fill="#F8F8F8" filter="url(#f1waaizb4kdecz)" height="32" id="ProjectStore" style="stroke:#383838;stroke-width:1.5;" width="110" x="193.5" y="99"/><ellipse cx="208.5" cy="115" fill="#C2C2C2" rx="11" ry="11" style="stroke:#383838;stroke-width:1.0;"/><path d="M211.4688,120.6406 Q210.8906,120.9375 210.25,121.0781 Q209.6094,121.2344 208.9063,121.2344 Q206.4063,121.2344 205.0781,119.5938 Q203.7656,117.9375 203.7656,114.8125 Q203.7656,111.6875 205.0781,110.0313 Q206.4063,108.375 208.9063,108.375 Q209.6094,108.375 210.25,108.5313 Q210.9063,108.6875 211.4688,108.9844 L211.4688,111.7031 Q210.8438,111.125 210.25,110.8594 Q209.6563,110.5781 209.0313,110.5781 Q207.6875,110.5781 207,111.6563 Q206.3125,112.7188 206.3125,114.8125 Q206.3125,116.9063 207,117.9844 Q207.6875,119.0469 209.0313,119.0469 Q209.6563,119.0469 210.25,118.7813 Q210.8438,118.5 211.4688,117.9219 L211.4688,120.6406 Z " fill="#000000"/><text fill="#000000" font-family="sans-serif" font-size="12" lengthAdjust="spacing" textLength="78" x="222.5" y="119.1543">ProjectStore</text><!--MD5=[27f7ed3e231c40dbeec807bb1f11352b]
class TemplateStore--><rect codeLine="16" fill="#F8F8F8" filter="url(#f1waaizb4kdecz)" height="32" id="TemplateStore" style="stroke:#383838;stroke-width:1.5;" width="124" x="20.5" y="191"/><ellipse cx="35.5" cy="207" fill="#C2C2C2" rx="11" ry="11" style="stroke:#383838;stroke-width:1.0;"/><path d="M38.4688,212.6406 Q37.8906,212.9375 37.25,213.0781 Q36.6094,213.2344 35.9063,213.2344 Q33.4063,213.2344 32.0781,211.5938 Q30.7656,209.9375 30.7656,206.8125 Q30.7656,203.6875 32.0781,202.0313 Q33.4063,200.375 35.9063,200.375 Q36.6094,200.375 37.25,200.5313 Q37.9063,200.6875 38.4688,200.9844 L38.4688,203.7031 Q37.8438,203.125 37.25,202.8594 Q36.6563,202.5781 36.0313,202.5781 Q34.6875,202.5781 34,203.6563 Q33.3125,204.7188 33.3125,206.8125 Q33.3125,208.9063 34,209.9844 Q34.6875,211.0469 36.0313,211.0469 Q36.6563,211.0469 37.25,210.7813 Q37.8438,210.5 38.4688,209.9219 L38.4688,212.6406 Z " fill="#000000"/><text fill="#000000" font-family="sans-serif" font-size="12" lengthAdjust="spacing" textLength="92" x="49.5" y="211.1543">TemplateStore</text><!--MD5=[ff3148b2caba12d75f868580a0b84dbc]
class ResourceStore--><rect codeLine="20" fill="#F8F8F8" filter="url(#f1waaizb4kdecz)" height="32" id="ResourceStore" style="stroke:#383838;stroke-width:1.5;" width="125" x="186" y="191"/><ellipse cx="201" cy="207" fill="#C2C2C2" rx="11" ry="11" style="stroke:#383838;stroke-width:1.0;"/><path d="M203.9688,212.6406 Q203.3906,212.9375 202.75,213.0781 Q202.1094,213.2344 201.4063,213.2344 Q198.9063,213.2344 197.5781,211.5938 Q196.2656,209.9375 196.2656,206.8125 Q196.2656,203.6875 197.5781,202.0313 Q198.9063,200.375 201.4063,200.375 Q202.1094,200.375 202.75,200.5313 Q203.4063,200.6875 203.9688,200.9844 L203.9688,203.7031 Q203.3438,203.125 202.75,202.8594 Q202.1563,202.5781 201.5313,202.5781 Q200.1875,202.5781 199.5,203.6563 Q198.8125,204.7188 198.8125,206.8125 Q198.8125,208.9063 199.5,209.9844 Q200.1875,211.0469 201.5313,211.0469 Q202.1563,211.0469 202.75,210.7813 Q203.3438,210.5 203.9688,209.9219 L203.9688,212.6406 Z " fill="#000000"/><text fill="#000000" font-family="sans-serif" font-size="12" lengthAdjust="spacing" textLength="93" x="215" y="211.1543">ResourceStore</text><!--MD5=[1bae557730b73f1a7cdeedbcb6baa87a]
link ProjectController to ProjectStore--><path codeLine="26" d="M179.58,39.27 C193.74,54.62 215.6,78.32 230.89,94.9 " fill="none" id="ProjectController-to-ProjectStore" style="stroke:#383838;stroke-width:1.0;stroke-dasharray:7.0,7.0;"/><polygon fill="#383838" points="234.63,98.96,231.4692,89.6321,231.2404,95.2843,225.5882,95.0555,234.63,98.96" style="stroke:#383838;stroke-width:1.0;"/><!--MD5=[1ff794f58ba48d0f5d3545422500eecf]
link TemplateController to TemplateStore--><path codeLine="27" d="M82.5,131.27 C82.5,146.23 82.5,169.12 82.5,185.63 " fill="none" id="TemplateController-to-TemplateStore" style="stroke:#383838;stroke-width:1.0;stroke-dasharray:7.0,7.0;"/><polygon fill="#383838" points="82.5,190.96,86.5,181.96,82.5,185.96,78.5,181.96,82.5,190.96" style="stroke:#383838;stroke-width:1.0;"/><!--MD5=[24c13b549f0ad7e9222fa3dbaa580f0a]
link ProjectController to TemplateController--><path codeLine="28" d="M151.42,39.27 C137.26,54.62 115.4,78.32 100.11,94.9 " fill="none" id="ProjectController-to-TemplateController" style="stroke:#383838;stroke-width:1.0;stroke-dasharray:7.0,7.0;"/><polygon fill="#383838" points="96.37,98.96,105.4118,95.0555,99.7596,95.2843,99.5308,89.6321,96.37,98.96" style="stroke:#383838;stroke-width:1.0;"/><!--MD5=[937baff60b8e2861c2588bf2ffb64f3e]
link ProjectStore to ResourceStore--><path codeLine="29" d="M248.5,131.27 C248.5,146.23 248.5,169.12 248.5,185.63 " fill="none" id="ProjectStore-to-ResourceStore" style="stroke:#383838;stroke-width:1.0;stroke-dasharray:7.0,7.0;"/><polygon fill="#383838" points="248.5,190.96,252.5,181.96,248.5,185.96,244.5,181.96,248.5,190.96" style="stroke:#383838;stroke-width:1.0;"/><!--MD5=[ead563fab9f8075f657de21bbc538fb0]
@startuml

skinparam monochrome true

class ProjectController {

}

class TemplateController {

}

class ProjectStore {

}

class TemplateStore {

}

class ResourceStore {

}

hide members

ProjectController ..> ProjectStore
TemplateController ..> TemplateStore
ProjectController ..> TemplateController
ProjectStore ..> ResourceStore

@enduml

PlantUML version 1.2021.4(Sun Apr 04 11:49:39 EEST 2021)
(GPL source distribution)
Java Runtime: OpenJDK Runtime Environment
JVM: OpenJDK 64-Bit Server VM
Default Encoding: UTF-8
Language: en
Country: GB
--></g></svg>