<?xml version="1.0" encoding="UTF-8" standalone="no"?><svg xmlns="http://www.w3.org/2000/svg" xmlns:xlink="http://www.w3.org/1999/xlink" contentScriptType="application/ecmascript" contentStyleType="text/css" height="528px" preserveAspectRatio="none" style="width:641px;height:528px;" version="1.1" viewBox="0 0 641 528" width="641px" zoomAndPan="magnify"><defs><filter height="300%" id="f2bowmznodl0t" width="300%" x="-1" y="-1"><feGaussianBlur result="blurOut" stdDeviation="2.0"/><feColorMatrix in="blurOut" result="blurOut2" type="matrix" values="0 0 0 0 0 0 0 0 0 0 0 0 0 0 0 0 0 0 .4 0"/><feOffset dx="4.0" dy="4.0" in="blurOut2" result="blurOut3"/><feBlend in="SourceGraphic" in2="blurOut3" mode="normal"/></filter></defs><g><rect fill="#FFFFFF" filter="url(#f2bowmznodl0t)" height="396.1953" style="stroke:#383838;stroke-width:1.0;" width="10" x="167" y="71.4297"/><rect fill="#FFFFFF" filter="url(#f2bowmznodl0t)" height="376.0625" style="stroke:#383838;stroke-width:1.0;" width="10" x="298" y="100.5625"/><rect fill="#FFFFFF" filter="url(#f2bowmznodl0t)" height="14" style="stroke:#383838;stroke-width:1.0;" width="10" x="511" y="129.6953"/><rect fill="#FFFFFF" filter="url(#f2bowmznodl0t)" height="98.2656" style="stroke:#383838;stroke-width:1.0;" width="10" x="511" y="172.8281"/><line style="stroke:#383838;stroke-width:1.0;stroke-dasharray:5.0,5.0;" x1="30" x2="30" y1="40.2969" y2="485.625"/><line style="stroke:#383838;stroke-width:1.0;stroke-dasharray:5.0,5.0;" x1="171.5" x2="171.5" y1="40.2969" y2="485.625"/><line style="stroke:#383838;stroke-width:1.0;stroke-dasharray:5.0,5.0;" x1="302.5" x2="302.5" y1="40.2969" y2="485.625"/><line style="stroke:#383838;stroke-width:1.0;stroke-dasharray:5.0,5.0;" x1="515.5" x2="515.5" y1="40.2969" y2="485.625"/><rect fill="#F8F8F8" filter="url(#f2bowmznodl0t)" height="30.2969" style="stroke:#383838;stroke-width:1.5;" width="46" x="5" y="5"/><text fill="#000000" font-family="sans-serif" font-size="14" lengthAdjust="spacing" textLength="32" x="12" y="24.9951">User</text><rect fill="#F8F8F8" filter="url(#f2bowmznodl0t)" height="30.2969" style="stroke:#383838;stroke-width:1.5;" width="46" x="5" y="484.625"/><text fill="#000000" font-family="sans-serif" font-size="14" lengthAdjust="spacing" textLength="32" x="12" y="504.6201">User</text><rect fill="#F8F8F8" filter="url(#f2bowmznodl0t)" height="30.2969" style="stroke:#383838;stroke-width:1.5;" width="87" x="126.5" y="5"/><text fill="#000000" font-family="sans-serif" font-size="14" lengthAdjust="spacing" textLength="73" x="133.5" y="24.9951">HomeView</text><rect fill="#F8F8F8" filter="url(#f2bowmznodl0t)" height="30.2969" style="stroke:#383838;stroke-width:1.5;" width="87" x="126.5" y="484.625"/><text fill="#000000" font-family="sans-serif" font-size="14" lengthAdjust="spacing" textLength="73" x="133.5" y="504.6201">HomeView</text><rect fill="#F8F8F8" filter="url(#f2bowmznodl0t)" height="30.2969" style="stroke:#383838;stroke-width:1.5;" width="129" x="236.5" y="5"/><text fill="#000000" font-family="sans-serif" font-size="14" lengthAdjust="spacing" textLength="115" x="243.5" y="24.9951">ProjectController</text><rect fill="#F8F8F8" filter="url(#f2bowmznodl0t)" height="30.2969" style="stroke:#383838;stroke-width:1.5;" width="129" x="236.5" y="484.625"/><text fill="#000000" font-family="sans-serif" font-size="14" lengthAdjust="spacing" textLength="115" x="243.5" y="504.6201">ProjectController</text><rect fill="#F8F8F8" filter="url(#f2bowmznodl0t)" height="30.2969" style="stroke:#383838;stroke-width:1.5;" width="99" x="464.5" y="5"/><text fill="#000000" font-family="sans-serif" font-size="14" lengthAdjust="spacing" textLength="85" x="471.5" y="24.9951">ProjectStore</text><rect fill="#F8F8F8" filter="url(#f2bowmznodl0t)" height="30.2969" style="stroke:#383838;stroke-width:1.5;" width="99" x="464.5" y="484.625"/><text fill="#000000" font-family="sans-serif" font-size="14" lengthAdjust="spacing" textLength="85" x="471.5" y="504.6201">ProjectStore</text><rect fill="#FFFFFF" filter="url(#f2bowmznodl0t)" height="396.1953" style="stroke:#383838;stroke-width:1.0;" width="10" x="167" y="71.4297"/><rect fill="#FFFFFF" filter="url(#f2bowmznodl0t)" height="376.0625" style="stroke:#383838;stroke-width:1.0;" width="10" x="298" y="100.5625"/><rect fill="#FFFFFF" filter="url(#f2bowmznodl0t)" height="14" style="stroke:#383838;stroke-width:1.0;" width="10" x="511" y="129.6953"/><rect fill="#FFFFFF" filter="url(#f2bowmznodl0t)" height="98.2656" style="stroke:#383838;stroke-width:1.0;" width="10" x="511" y="172.8281"/><polygon fill="#383838" points="155,67.4297,165,71.4297,155,75.4297,159,71.4297" style="stroke:#383838;stroke-width:1.0;"/><line style="stroke:#383838;stroke-width:1.0;" x1="30" x2="161" y1="71.4297" y2="71.4297"/><text fill="#000000" font-family="sans-serif" font-size="13" lengthAdjust="spacing" textLength="118" x="37" y="66.3638">click create button</text><polygon fill="#383838" points="286,96.5625,296,100.5625,286,104.5625,290,100.5625" style="stroke:#383838;stroke-width:1.0;"/><line style="stroke:#383838;stroke-width:1.0;" x1="177" x2="292" y1="100.5625" y2="100.5625"/><text fill="#000000" font-family="sans-serif" font-size="13" lengthAdjust="spacing" textLength="102" x="184" y="95.4966">create_project()</text><polygon fill="#383838" points="499,125.6953,509,129.6953,499,133.6953,503,129.6953" style="stroke:#383838;stroke-width:1.0;"/><line style="stroke:#383838;stroke-width:1.0;" x1="308" x2="505" y1="129.6953" y2="129.6953"/><text fill="#000000" font-family="sans-serif" font-size="13" lengthAdjust="spacing" textLength="47" x="315" y="124.6294">exists()</text><polygon fill="#383838" points="319,139.6953,309,143.6953,319,147.6953,315,143.6953" style="stroke:#383838;stroke-width:1.0;"/><line style="stroke:#383838;stroke-width:1.0;stroke-dasharray:2.0,2.0;" x1="313" x2="515" y1="143.6953" y2="143.6953"/><polygon fill="#383838" points="499,168.8281,509,172.8281,499,176.8281,503,172.8281" style="stroke:#383838;stroke-width:1.0;"/><line style="stroke:#383838;stroke-width:1.0;" x1="308" x2="505" y1="172.8281" y2="172.8281"/><text fill="#000000" font-family="sans-serif" font-size="13" lengthAdjust="spacing" textLength="51" x="315" y="167.7622">create()</text><line style="stroke:#383838;stroke-width:1.0;" x1="521" x2="563" y1="201.9609" y2="201.9609"/><line style="stroke:#383838;stroke-width:1.0;" x1="563" x2="563" y1="201.9609" y2="214.9609"/><line style="stroke:#383838;stroke-width:1.0;" x1="522" x2="563" y1="214.9609" y2="214.9609"/><polygon fill="#383838" points="532,210.9609,522,214.9609,532,218.9609,528,214.9609" style="stroke:#383838;stroke-width:1.0;"/><text fill="#000000" font-family="sans-serif" font-size="13" lengthAdjust="spacing" textLength="106" x="528" y="196.895">_create_record()</text><line style="stroke:#383838;stroke-width:1.0;" x1="521" x2="563" y1="244.0938" y2="244.0938"/><line style="stroke:#383838;stroke-width:1.0;" x1="563" x2="563" y1="244.0938" y2="257.0938"/><line style="stroke:#383838;stroke-width:1.0;" x1="522" x2="563" y1="257.0938" y2="257.0938"/><polygon fill="#383838" points="532,253.0938,522,257.0938,532,261.0938,528,257.0938" style="stroke:#383838;stroke-width:1.0;"/><text fill="#000000" font-family="sans-serif" font-size="13" lengthAdjust="spacing" textLength="47" x="528" y="239.0278">_write()</text><polygon fill="#383838" points="319,267.0938,309,271.0938,319,275.0938,315,271.0938" style="stroke:#383838;stroke-width:1.0;"/><line style="stroke:#383838;stroke-width:1.0;stroke-dasharray:2.0,2.0;" x1="313" x2="515" y1="271.0938" y2="271.0938"/><line style="stroke:#383838;stroke-width:1.0;" x1="308" x2="350" y1="300.2266" y2="300.2266"/><line style="stroke:#383838;stroke-width:1.0;" x1="350" x2="350" y1="300.2266" y2="313.2266"/><line style="stroke:#383838;stroke-width:1.0;" x1="309" x2="350" y1="313.2266" y2="313.2266"/><polygon fill="#383838" points="319,309.2266,309,313.2266,319,317.2266,315,313.2266" style="stroke:#383838;stroke-width:1.0;"/><text fill="#000000" font-family="sans-serif" font-size="13" lengthAdjust="spacing" textLength="159" x="315" y="295.1606">add_resource('main.tex')</text><line style="stroke:#383838;stroke-width:1.0;" x1="308" x2="350" y1="342.3594" y2="342.3594"/><line style="stroke:#383838;stroke-width:1.0;" x1="350" x2="350" y1="342.3594" y2="355.3594"/><line style="stroke:#383838;stroke-width:1.0;" x1="309" x2="350" y1="355.3594" y2="355.3594"/><polygon fill="#383838" points="319,351.3594,309,355.3594,319,359.3594,315,355.3594" style="stroke:#383838;stroke-width:1.0;"/><text fill="#000000" font-family="sans-serif" font-size="13" lengthAdjust="spacing" textLength="189" x="315" y="337.2935">add_resource('projectrc.json')</text><line style="stroke:#383838;stroke-width:1.0;" x1="308" x2="350" y1="384.4922" y2="384.4922"/><line style="stroke:#383838;stroke-width:1.0;" x1="350" x2="350" y1="384.4922" y2="397.4922"/><line style="stroke:#383838;stroke-width:1.0;" x1="309" x2="350" y1="397.4922" y2="397.4922"/><polygon fill="#383838" points="319,393.4922,309,397.4922,319,401.4922,315,397.4922" style="stroke:#383838;stroke-width:1.0;"/><text fill="#000000" font-family="sans-serif" font-size="13" lengthAdjust="spacing" textLength="150" x="315" y="379.4263">set_root_file('main.tex')</text><polygon fill="#383838" points="188,407.4922,178,411.4922,188,415.4922,184,411.4922" style="stroke:#383838;stroke-width:1.0;"/><line style="stroke:#383838;stroke-width:1.0;stroke-dasharray:2.0,2.0;" x1="182" x2="297" y1="411.4922" y2="411.4922"/><line style="stroke:#383838;stroke-width:1.0;" x1="177" x2="219" y1="440.625" y2="440.625"/><line style="stroke:#383838;stroke-width:1.0;" x1="219" x2="219" y1="440.625" y2="453.625"/><line style="stroke:#383838;stroke-width:1.0;" x1="178" x2="219" y1="453.625" y2="453.625"/><polygon fill="#383838" points="188,449.625,178,453.625,188,457.625,184,453.625" style="stroke:#383838;stroke-width:1.0;"/><text fill="#000000" font-family="sans-serif" font-size="13" lengthAdjust="spacing" textLength="85" x="184" y="435.5591">add_project()</text><polygon fill="#383838" points="41,463.625,31,467.625,41,471.625,37,467.625" style="stroke:#383838;stroke-width:1.0;"/><line style="stroke:#383838;stroke-width:1.0;stroke-dasharray:2.0,2.0;" x1="35" x2="171" y1="467.625" y2="467.625"/><!--MD5=[f3fa41841bb2f87116f591308830a563]
@startuml

skinparam monochrome true

User -> HomeView: click create button
activate HomeView

HomeView -> ProjectController: create_project()
activate ProjectController

ProjectController -> ProjectStore: exists()
activate ProjectStore

ProjectStore - -> ProjectController:
deactivate ProjectStore

ProjectController -> ProjectStore: create()
activate ProjectStore

ProjectStore -> ProjectStore: _create_record()
ProjectStore -> ProjectStore: _write()

ProjectStore - -> ProjectController:
deactivate ProjectStore

ProjectController -> ProjectController: add_resource('main.tex')
ProjectController -> ProjectController: add_resource('projectrc.json')
ProjectController -> ProjectController: set_root_file('main.tex')

ProjectController - -> HomeView
deactivate ProjectStore

HomeView -> HomeView: add_project()

HomeView - -> User:
deactivate HomeView

@enduml

PlantUML version 1.2021.4(Sun Apr 04 11:49:39 EEST 2021)
(GPL source distribution)
Java Runtime: OpenJDK Runtime Environment
JVM: OpenJDK 64-Bit Server VM
Default Encoding: UTF-8
Language: en
Country: GB
--></g></svg>