<?xml version="1.0" encoding="UTF-8" standalone="no"?><svg xmlns="http://www.w3.org/2000/svg" xmlns:xlink="http://www.w3.org/1999/xlink" contentScriptType="application/ecmascript" contentStyleType="text/css" height="296px" preserveAspectRatio="none" style="width:241px;height:296px;" version="1.1" viewBox="0 0 241 296" width="241px" zoomAndPan="magnify"><defs><filter height="300%" id="f195yup1cxgdzy" width="300%" x="-1" y="-1"><feGaussianBlur result="blurOut" stdDeviation="2.0"/><feColorMatrix in="blurOut" result="blurOut2" type="matrix" values="0 0 0 0 0 0 0 0 0 0 0 0 0 0 0 0 0 0 .4 0"/><feOffset dx="4.0" dy="4.0" in="blurOut2" result="blurOut3"/><feBlend in="SourceGraphic" in2="blurOut3" mode="normal"/></filter></defs><g><!--MD5=[79d378210367c0c6ec62ef762ddfbd1b]
class Project--><rect codeLine="4" fill="#F8F8F8" filter="url(#f195yup1cxgdzy)" height="99.2188" id="Project" style="stroke:#383838;stroke-width:1.5;" width="102" x="66.5" y="7"/><ellipse cx="93.2" cy="23" fill="#C2C2C2" rx="11" ry="11" style="stroke:#383838;stroke-width:1.0;"/><path d="M96.1688,28.6406 Q95.5906,28.9375 94.95,29.0781 Q94.3094,29.2344 93.6063,29.2344 Q91.1063,29.2344 89.7781,27.5938 Q88.4656,25.9375 88.4656,22.8125 Q88.4656,19.6875 89.7781,18.0313 Q91.1063,16.375 93.6063,16.375 Q94.3094,16.375 94.95,16.5313 Q95.6063,16.6875 96.1688,16.9844 L96.1688,19.7031 Q95.5438,19.125 94.95,18.8594 Q94.3563,18.5781 93.7313,18.5781 Q92.3875,18.5781 91.7,19.6563 Q91.0125,20.7188 91.0125,22.8125 Q91.0125,24.9063 91.7,25.9844 Q92.3875,27.0469 93.7313,27.0469 Q94.3563,27.0469 94.95,26.7813 Q95.5438,26.5 96.1688,25.9219 L96.1688,28.6406 Z " fill="#000000"/><text fill="#000000" font-family="sans-serif" font-size="12" lengthAdjust="spacing" textLength="44" x="109.8" y="27.1543">Project</text><line style="stroke:#383838;stroke-width:1.5;" x1="67.5" x2="167.5" y1="39" y2="39"/><ellipse cx="77.5" cy="50" rx="3" ry="3" style="stroke:#545454;stroke-width:1.0;fill:none;"/><text fill="#000000" font-family="sans-serif" font-size="11" lengthAdjust="spacing" textLength="32" x="86.5" y="53.2104">name</text><ellipse cx="77.5" cy="62.8047" rx="3" ry="3" style="stroke:#545454;stroke-width:1.0;fill:none;"/><text fill="#000000" font-family="sans-serif" font-size="11" lengthAdjust="spacing" textLength="25" x="86.5" y="66.0151">path</text><ellipse cx="77.5" cy="75.6094" rx="3" ry="3" style="stroke:#545454;stroke-width:1.0;fill:none;"/><text fill="#000000" font-family="sans-serif" font-size="11" lengthAdjust="spacing" textLength="55" x="86.5" y="78.8198">project_id</text><ellipse cx="77.5" cy="88.4141" rx="3" ry="3" style="stroke:#545454;stroke-width:1.0;fill:none;"/><text fill="#000000" font-family="sans-serif" font-size="11" lengthAdjust="spacing" textLength="76" x="86.5" y="91.6245">last_modified</text><line style="stroke:#383838;stroke-width:1.5;" x1="67.5" x2="167.5" y1="98.2188" y2="98.2188"/><!--MD5=[6b13f1b330d33795af281e5c1dfe1e98]
class Resource--><rect codeLine="11" fill="#F8F8F8" filter="url(#f195yup1cxgdzy)" height="99.2188" id="Resource" style="stroke:#383838;stroke-width:1.5;" width="93" x="7" y="183"/><ellipse cx="22.9" cy="199" fill="#C2C2C2" rx="11" ry="11" style="stroke:#383838;stroke-width:1.0;"/><path d="M25.8688,204.6406 Q25.2906,204.9375 24.65,205.0781 Q24.0094,205.2344 23.3063,205.2344 Q20.8063,205.2344 19.4781,203.5938 Q18.1656,201.9375 18.1656,198.8125 Q18.1656,195.6875 19.4781,194.0313 Q20.8063,192.375 23.3063,192.375 Q24.0094,192.375 24.65,192.5313 Q25.3063,192.6875 25.8688,192.9844 L25.8688,195.7031 Q25.2438,195.125 24.65,194.8594 Q24.0563,194.5781 23.4313,194.5781 Q22.0875,194.5781 21.4,195.6563 Q20.7125,196.7188 20.7125,198.8125 Q20.7125,200.9063 21.4,201.9844 Q22.0875,203.0469 23.4313,203.0469 Q24.0563,203.0469 24.65,202.7813 Q25.2438,202.5 25.8688,201.9219 L25.8688,204.6406 Z " fill="#000000"/><text fill="#000000" font-family="sans-serif" font-size="12" lengthAdjust="spacing" textLength="59" x="37.1" y="203.1543">Resource</text><line style="stroke:#383838;stroke-width:1.5;" x1="8" x2="99" y1="215" y2="215"/><ellipse cx="18" cy="226" rx="3" ry="3" style="stroke:#545454;stroke-width:1.0;fill:none;"/><text fill="#000000" font-family="sans-serif" font-size="11" lengthAdjust="spacing" textLength="32" x="27" y="229.2104">name</text><ellipse cx="18" cy="238.8047" rx="3" ry="3" style="stroke:#545454;stroke-width:1.0;fill:none;"/><text fill="#000000" font-family="sans-serif" font-size="11" lengthAdjust="spacing" textLength="24" x="27" y="242.0151">type</text><ellipse cx="18" cy="251.6094" rx="3" ry="3" style="stroke:#545454;stroke-width:1.0;fill:none;"/><text fill="#000000" font-family="sans-serif" font-size="11" lengthAdjust="spacing" textLength="25" x="27" y="254.8198">path</text><ellipse cx="18" cy="264.4141" rx="3" ry="3" style="stroke:#545454;stroke-width:1.0;fill:none;"/><text fill="#000000" font-family="sans-serif" font-size="11" lengthAdjust="spacing" textLength="67" x="27" y="267.6245">resource_id</text><line style="stroke:#383838;stroke-width:1.5;" x1="8" x2="99" y1="274.2188" y2="274.2188"/><!--MD5=[92c5c24ede62ea1a09b5f6dfb8f3a256]
class Template--><rect codeLine="18" fill="#F8F8F8" filter="url(#f195yup1cxgdzy)" height="99.2188" id="Template" style="stroke:#383838;stroke-width:1.5;" width="92" x="135.5" y="183"/><ellipse cx="151.4" cy="199" fill="#C2C2C2" rx="11" ry="11" style="stroke:#383838;stroke-width:1.0;"/><path d="M154.3688,204.6406 Q153.7906,204.9375 153.15,205.0781 Q152.5094,205.2344 151.8063,205.2344 Q149.3063,205.2344 147.9781,203.5938 Q146.6656,201.9375 146.6656,198.8125 Q146.6656,195.6875 147.9781,194.0313 Q149.3063,192.375 151.8063,192.375 Q152.5094,192.375 153.15,192.5313 Q153.8063,192.6875 154.3688,192.9844 L154.3688,195.7031 Q153.7438,195.125 153.15,194.8594 Q152.5563,194.5781 151.9313,194.5781 Q150.5875,194.5781 149.9,195.6563 Q149.2125,196.7188 149.2125,198.8125 Q149.2125,200.9063 149.9,201.9844 Q150.5875,203.0469 151.9313,203.0469 Q152.5563,203.0469 153.15,202.7813 Q153.7438,202.5 154.3688,201.9219 L154.3688,204.6406 Z " fill="#000000"/><text fill="#000000" font-family="sans-serif" font-size="12" lengthAdjust="spacing" textLength="58" x="165.6" y="203.1543">Template</text><line style="stroke:#383838;stroke-width:1.5;" x1="136.5" x2="226.5" y1="215" y2="215"/><ellipse cx="146.5" cy="226" rx="3" ry="3" style="stroke:#545454;stroke-width:1.0;fill:none;"/><text fill="#000000" font-family="sans-serif" font-size="11" lengthAdjust="spacing" textLength="32" x="155.5" y="229.2104">name</text><ellipse cx="146.5" cy="238.8047" rx="3" ry="3" style="stroke:#545454;stroke-width:1.0;fill:none;"/><text fill="#000000" font-family="sans-serif" font-size="11" lengthAdjust="spacing" textLength="49" x="155.5" y="242.0151">filename</text><ellipse cx="146.5" cy="251.6094" rx="3" ry="3" style="stroke:#545454;stroke-width:1.0;fill:none;"/><text fill="#000000" font-family="sans-serif" font-size="11" lengthAdjust="spacing" textLength="25" x="155.5" y="254.8198">path</text><ellipse cx="146.5" cy="264.4141" rx="3" ry="3" style="stroke:#545454;stroke-width:1.0;fill:none;"/><text fill="#000000" font-family="sans-serif" font-size="11" lengthAdjust="spacing" textLength="66" x="155.5" y="267.6245">template_id</text><line style="stroke:#383838;stroke-width:1.5;" x1="136.5" x2="226.5" y1="274.2188" y2="274.2188"/><!--MD5=[0bef9f8d7067a121dd96a530c1f2080d]
link Project to Resource--><path codeLine="25" d="M99.5,106.43 C90.7,130.35 80.14,159.06 71.36,182.94 " fill="none" id="Project-Resource" style="stroke:#383838;stroke-width:1.0;"/><text fill="#000000" font-family="sans-serif" font-size="13" lengthAdjust="spacing" textLength="8" x="88.5438" y="126.2083">1</text><text fill="#000000" font-family="sans-serif" font-size="13" lengthAdjust="spacing" textLength="7" x="66.3794" y="171.9768">*</text><!--MD5=[f8397287ef898584cde223593813bf39]
link Project to Template--><path codeLine="26" d="M135.5,106.43 C144.3,130.35 154.86,159.06 163.64,182.94 " fill="none" id="Project-Template" style="stroke:#383838;stroke-width:1.0;"/><polygon fill="#000000" points="157.2259,149.2591,156.862,139.7555,151.3454,141.7844,157.2259,149.2591" style="stroke:#000000;stroke-width:1.0;"/><text fill="#000000" font-family="sans-serif" font-size="13" lengthAdjust="spacing" textLength="48" x="164.5" y="149.0669">käyttää</text><!--MD5=[cde57de992c776aa0d931a557307f19a]
@startuml

skinparam monochrome true

class Project {
    +name
    +path
    +project_id
    +last_modified
}

class Resource {
    +name
    +type
    +path
    +resource_id
}

class Template {
    +name
    +filename
    +path
    +template_id
}

Project "1" - - "*" Resource
Project - - Template : käyttää >

@enduml

PlantUML version 1.2021.4(Sun Apr 04 11:49:39 EEST 2021)
(GPL source distribution)
Java Runtime: OpenJDK Runtime Environment
JVM: OpenJDK 64-Bit Server VM
Default Encoding: UTF-8
Language: en
Country: GB
--></g></svg>