<?xml version="1.0" encoding="UTF-8" standalone="no"?><svg xmlns="http://www.w3.org/2000/svg" xmlns:xlink="http://www.w3.org/1999/xlink" contentScriptType="application/ecmascript" contentStyleType="text/css" height="290px" preserveAspectRatio="none" style="width:772px;height:290px;" version="1.1" viewBox="0 0 772 290" width="772px" zoomAndPan="magnify"><defs><filter height="300%" id="fkhk4ovqgvp9s" width="300%" x="-1" y="-1"><feGaussianBlur result="blurOut" stdDeviation="2.0"/><feColorMatrix in="blurOut" result="blurOut2" type="matrix" values="0 0 0 0 0 0 0 0 0 0 0 0 0 0 0 0 0 0 .4 0"/><feOffset dx="4.0" dy="4.0" in="blurOut2" result="blurOut3"/><feBlend in="SourceGraphic" in2="blurOut3" mode="normal"/></filter></defs><g><ellipse cx="316.1075" cy="16" fill="#000000" filter="url(#fkhk4ovqgvp9s)" rx="10" ry="10" style="stroke:none;stroke-width:1.0;"/><rect fill="#F8F8F8" filter="url(#fkhk4ovqgvp9s)" height="33.9688" rx="12.5" ry="12.5" style="stroke:#383838;stroke-width:1.5;" width="84" x="274.1075" y="67"/><text fill="#000000" font-family="sans-serif" font-size="12" lengthAdjust="spacing" textLength="64" x="284.1075" y="88.1387">HomeView</text><polygon fill="#F8F8F8" filter="url(#fkhk4ovqgvp9s)" points="92.1075,160,104.1075,172,92.1075,184,80.1075,172,92.1075,160" style="stroke:#383838;stroke-width:1.5;"/><rect fill="#F8F8F8" filter="url(#fkhk4ovqgvp9s)" height="33.9688" rx="12.5" ry="12.5" style="stroke:#383838;stroke-width:1.5;" width="92" x="125.1075" y="243"/><text fill="#000000" font-family="sans-serif" font-size="12" lengthAdjust="spacing" textLength="72" x="135.1075" y="264.1387">ProjectView</text><rect fill="#F8F8F8" filter="url(#fkhk4ovqgvp9s)" height="33.9688" rx="12.5" ry="12.5" style="stroke:#383838;stroke-width:1.5;" width="100" x="266.1075" y="155"/><text fill="#000000" font-family="sans-serif" font-size="12" lengthAdjust="spacing" textLength="80" x="276.1075" y="176.1387">SettingsView</text><rect fill="#F8F8F8" filter="url(#fkhk4ovqgvp9s)" height="33.9688" rx="12.5" ry="12.5" style="stroke:#383838;stroke-width:1.5;" width="106" x="464.1075" y="155"/><text fill="#000000" font-family="sans-serif" font-size="12" lengthAdjust="spacing" textLength="86" x="474.1075" y="176.1387">TemplateView</text><!--MD5=[e676330e52688c1ef19715ab89c6a0e3]
link start to HomeView--><path d="M316.1075,26.18 C316.1075,35.27 316.1075,49.53 316.1075,61.49 " fill="none" id="start-to-HomeView" style="stroke:#383838;stroke-width:1.0;"/><polygon fill="#383838" points="316.1075,66.79,320.1075,57.79,316.1075,61.79,312.1075,57.79,316.1075,66.79" style="stroke:#383838;stroke-width:1.0;"/><!--MD5=[9e141f9eb0ff303e0874d9caa0f07f9b]
link HomeView to #5--><path d="M273.9775,84.85 C210.9675,85.63 96.8175,91.23 71.1075,121 C60.7875,132.95 73.0075,150.71 82.6575,161.53 " fill="none" id="HomeView-to-#5" style="stroke:#383838;stroke-width:1.0;"/><polygon fill="#383838" points="86.3075,165.44,83.0896,156.1317,82.8954,161.7852,77.2419,161.591,86.3075,165.44" style="stroke:#383838;stroke-width:1.0;"/><text fill="#000000" font-family="sans-serif" font-size="11" lengthAdjust="spacing" textLength="66" x="6" y="159.1673">Luo projekti</text><!--MD5=[b180a425f83ab0dfccc95f4823ea53c9]
link #5 to HomeView--><path d="M89.2075,162.81 C85.9175,151.9 82.1975,132.63 92.1075,121 C114.2975,94.95 209.5575,87.68 268.4775,85.69 " fill="none" id="#5-to-HomeView" style="stroke:#383838;stroke-width:1.0;"/><polygon fill="#383838" points="273.7075,85.53,264.5863,81.8147,268.71,85.6871,264.8376,89.8107,273.7075,85.53" style="stroke:#383838;stroke-width:1.0;"/><text fill="#000000" font-family="sans-serif" font-size="11" lengthAdjust="spacing" textLength="66" x="93.1075" y="132.2104">Epäonnistui</text><!--MD5=[3915b49fbac2a879782fbbdd63a75d96]
link #5 to ProjectView--><path d="M92.7175,183.64 C93.8475,194.56 97.0475,211.54 106.1075,223 C111.4075,229.7 118.3175,235.35 125.6475,240.03 " fill="none" id="#5-to-ProjectView" style="stroke:#383838;stroke-width:1.0;"/><polygon fill="#383838" points="130.2575,242.83,124.6297,234.7474,125.9802,240.2407,120.4869,241.5911,130.2575,242.83" style="stroke:#383838;stroke-width:1.0;"/><text fill="#000000" font-family="sans-serif" font-size="11" lengthAdjust="spacing" textLength="47" x="107.1075" y="220.2104">Onnistui</text><!--MD5=[e1dea81a26514bccbac35ad6540d9cd4]
link HomeView to ProjectView--><path d="M274.0575,95.18 C242.9975,105.04 202.5375,123.28 181.1075,155 C164.5575,179.49 165.0275,214.94 167.5475,237.47 " fill="none" id="HomeView-to-ProjectView" style="stroke:#383838;stroke-width:1.0;"/><polygon fill="#383838" points="168.1875,242.63,171.0503,233.2064,167.5726,237.668,163.1111,234.1902,168.1875,242.63" style="stroke:#383838;stroke-width:1.0;"/><text fill="#000000" font-family="sans-serif" font-size="11" lengthAdjust="spacing" textLength="73" x="182.1075" y="176.2104">Avaa projekti</text><!--MD5=[7fb8ae6a314b81a2afd3393e70e8f62b]
link ProjectView to HomeView--><path d="M217.4475,256.92 C349.3375,250.51 719.5275,229.1 755.1075,189 C765.1375,177.7 764.9175,166.5 755.1075,155 C705.1075,96.4 466.1375,86.62 363.3175,85.16 " fill="none" id="ProjectView-to-HomeView" style="stroke:#383838;stroke-width:1.0;"/><polygon fill="#383838" points="358.2275,85.1,367.1812,89.2026,363.2272,85.1571,367.2726,81.2031,358.2275,85.1" style="stroke:#383838;stroke-width:1.0;"/><!--MD5=[3230fb4672212393a0c9462cd165b0e9]
link ProjectView to ProjectView--><path d="M217.3675,251.88 C228.6875,252.48 237.1075,255.19 237.1075,260 C237.1075,264.06 231.1075,266.62 222.4375,267.68 " fill="none" id="ProjectView-to-ProjectView" style="stroke:#383838;stroke-width:1.0;"/><polygon fill="#383838" points="217.3675,268.12,226.677,271.3345,222.3491,267.6918,225.9919,263.3639,217.3675,268.12" style="stroke:#383838;stroke-width:1.0;"/><text fill="#000000" font-family="sans-serif" font-size="11" lengthAdjust="spacing" textLength="74" x="243.1075" y="264.2104">Sulje projekti</text><!--MD5=[6dd11597a6af405c7fa49f582b71941b]
link HomeView to SettingsView--><path d="M310.0975,101.18 C308.3275,114.87 308.1375,134.61 309.5175,149.61 " fill="none" id="HomeView-to-SettingsView" style="stroke:#383838;stroke-width:1.0;"/><polygon fill="#383838" points="310.1075,154.9,313.1069,145.519,309.5647,149.9295,305.1542,146.3874,310.1075,154.9" style="stroke:#383838;stroke-width:1.0;"/><!--MD5=[4a0c3b130c93e0a2c5b0e51f79222422]
link SettingsView to HomeView--><path d="M322.1075,154.9 C323.8875,141.22 324.0775,121.49 322.6975,106.47 " fill="none" id="SettingsView-to-HomeView" style="stroke:#383838;stroke-width:1.0;"/><polygon fill="#383838" points="322.1175,101.18,319.1181,110.561,322.6603,106.1505,327.0708,109.6926,322.1175,101.18" style="stroke:#383838;stroke-width:1.0;"/><!--MD5=[b33506f707406ebfac837c48bb8669ad]
link HomeView to TemplateView--><path d="M347.8975,101.18 C380.3875,115.89 431.0175,137.58 468.4975,152.88 " fill="none" id="HomeView-to-TemplateView" style="stroke:#383838;stroke-width:1.0;"/><polygon fill="#383838" points="473.4675,154.9,466.6419,147.8,468.837,153.0135,463.6235,155.2087,473.4675,154.9" style="stroke:#383838;stroke-width:1.0;"/><!--MD5=[a85ad25e0c02dd11b82fc8183f1237d1]
link TemplateView to HomeView--><path d="M485.6075,154.96 C452.7575,140.07 401.1575,117.97 363.4375,102.6 " fill="none" id="TemplateView-to-HomeView" style="stroke:#383838;stroke-width:1.0;"/><polygon fill="#383838" points="358.4375,100.57,365.2895,107.6446,363.0749,102.4392,368.2803,100.2247,358.4375,100.57" style="stroke:#383838;stroke-width:1.0;"/><!--MD5=[accb028f1c4d848889109910956654d1]
link TemplateView to TemplateView--><path d="M570.2575,163.99 C581.7675,164.78 590.1075,167.45 590.1075,172 C590.1075,175.84 584.1675,178.34 575.3975,179.5 " fill="none" id="TemplateView-to-TemplateView" style="stroke:#383838;stroke-width:1.0;"/><polygon fill="#383838" points="570.2575,180.01,579.6038,183.1159,575.2338,179.5238,578.8259,175.1538,570.2575,180.01" style="stroke:#383838;stroke-width:1.0;"/><text fill="#000000" font-family="sans-serif" font-size="11" lengthAdjust="spacing" textLength="145" x="596.1075" y="176.2104">Luo/muokkaa/poista malli</text><!--MD5=[14ae4f36ba205d0b1d82da783228c960]
link SettingsView to SettingsView--><path d="M366.1275,163.93 C377.6475,164.63 386.1075,167.32 386.1075,172 C386.1075,175.95 380.0875,178.48 371.2875,179.6 " fill="none" id="SettingsView-to-SettingsView" style="stroke:#383838;stroke-width:1.0;"/><polygon fill="#383838" points="366.1275,180.07,375.456,183.2291,371.1065,179.6122,374.7234,175.2627,366.1275,180.07" style="stroke:#383838;stroke-width:1.0;"/><text fill="#000000" font-family="sans-serif" font-size="11" lengthAdjust="spacing" textLength="48" x="392.1075" y="176.2104">Tallenna</text><!--MD5=[c36183add080dbe6a75d3f579e9736c8]
@startuml

skinparam monochrome true

(*) - -> HomeView

if "Luo projekti" then
    - ->[Onnistui] ProjectView
else
    - ->[Epäonnistui] HomeView
endif

HomeView - ->[Avaa projekti] ProjectView
ProjectView - -> HomeView
ProjectView - ->[Sulje projekti] ProjectView

HomeView - -> SettingsView
HomeView - -> TemplateView
SettingsView - -> HomeView
TemplateView - -> HomeView

TemplateView - ->[Luo/muokkaa/poista malli] TemplateView
SettingsView - ->[Tallenna] SettingsView

@enduml

PlantUML version 1.2021.4(Sun Apr 04 11:49:39 EEST 2021)
(GPL source distribution)
Java Runtime: OpenJDK Runtime Environment
JVM: OpenJDK 64-Bit Server VM
Default Encoding: UTF-8
Language: en
Country: GB
--></g></svg>