<?xml version="1.0" encoding="UTF-8" standalone="no"?><svg xmlns="http://www.w3.org/2000/svg" xmlns:xlink="http://www.w3.org/1999/xlink" contentScriptType="application/ecmascript" contentStyleType="text/css" height="306px" preserveAspectRatio="none" style="width:572px;height:306px;" version="1.1" viewBox="0 0 572 306" width="572px" zoomAndPan="magnify"><defs><filter height="300%" id="fvjy8kkbx5q8z" width="300%" x="-1" y="-1"><feGaussianBlur result="blurOut" stdDeviation="2.0"/><feColorMatrix in="blurOut" result="blurOut2" type="matrix" values="0 0 0 0 0 0 0 0 0 0 0 0 0 0 0 0 0 0 .4 0"/><feOffset dx="4.0" dy="4.0" in="blurOut2" result="blurOut3"/><feBlend in="SourceGraphic" in2="blurOut3" mode="normal"/></filter></defs><g><rect fill="#FFFFFF" filter="url(#fvjy8kkbx5q8z)" height="173.6641" style="stroke:#383838;stroke-width:1.0;" width="10" x="211" y="71.4297"/><rect fill="#FFFFFF" filter="url(#fvjy8kkbx5q8z)" height="130.5313" style="stroke:#383838;stroke-width:1.0;" width="10" x="343" y="100.5625"/><rect fill="#FFFFFF" filter="url(#fvjy8kkbx5q8z)" height="29.1328" style="stroke:#383838;stroke-width:1.0;" width="10" x="506" y="129.6953"/><rect fill="#FFFFFF" filter="url(#fvjy8kkbx5q8z)" height="29.1328" style="stroke:#383838;stroke-width:1.0;" width="10" x="506" y="187.9609"/><line style="stroke:#383838;stroke-width:1.0;stroke-dasharray:5.0,5.0;" x1="30" x2="30" y1="40.2969" y2="263.0938"/><line style="stroke:#383838;stroke-width:1.0;stroke-dasharray:5.0,5.0;" x1="216" x2="216" y1="40.2969" y2="263.0938"/><line style="stroke:#383838;stroke-width:1.0;stroke-dasharray:5.0,5.0;" x1="347.5" x2="347.5" y1="40.2969" y2="263.0938"/><line style="stroke:#383838;stroke-width:1.0;stroke-dasharray:5.0,5.0;" x1="510.5" x2="510.5" y1="40.2969" y2="263.0938"/><rect fill="#F8F8F8" filter="url(#fvjy8kkbx5q8z)" height="30.2969" style="stroke:#383838;stroke-width:1.5;" width="46" x="5" y="5"/><text fill="#000000" font-family="sans-serif" font-size="14" lengthAdjust="spacing" textLength="32" x="12" y="24.9951">User</text><rect fill="#F8F8F8" filter="url(#fvjy8kkbx5q8z)" height="30.2969" style="stroke:#383838;stroke-width:1.5;" width="46" x="5" y="262.0938"/><text fill="#000000" font-family="sans-serif" font-size="14" lengthAdjust="spacing" textLength="32" x="12" y="282.0889">User</text><rect fill="#F8F8F8" filter="url(#fvjy8kkbx5q8z)" height="30.2969" style="stroke:#383838;stroke-width:1.5;" width="94" x="167" y="5"/><text fill="#000000" font-family="sans-serif" font-size="14" lengthAdjust="spacing" textLength="80" x="174" y="24.9951">ProjectView</text><rect fill="#F8F8F8" filter="url(#fvjy8kkbx5q8z)" height="30.2969" style="stroke:#383838;stroke-width:1.5;" width="94" x="167" y="262.0938"/><text fill="#000000" font-family="sans-serif" font-size="14" lengthAdjust="spacing" textLength="80" x="174" y="282.0889">ProjectView</text><rect fill="#F8F8F8" filter="url(#fvjy8kkbx5q8z)" height="30.2969" style="stroke:#383838;stroke-width:1.5;" width="129" x="281.5" y="5"/><text fill="#000000" font-family="sans-serif" font-size="14" lengthAdjust="spacing" textLength="115" x="288.5" y="24.9951">ProjectController</text><rect fill="#F8F8F8" filter="url(#fvjy8kkbx5q8z)" height="30.2969" style="stroke:#383838;stroke-width:1.5;" width="129" x="281.5" y="262.0938"/><text fill="#000000" font-family="sans-serif" font-size="14" lengthAdjust="spacing" textLength="115" x="288.5" y="282.0889">ProjectController</text><rect fill="#F8F8F8" filter="url(#fvjy8kkbx5q8z)" height="30.2969" style="stroke:#383838;stroke-width:1.5;" width="99" x="459.5" y="5"/><text fill="#000000" font-family="sans-serif" font-size="14" lengthAdjust="spacing" textLength="85" x="466.5" y="24.9951">ProjectStore</text><rect fill="#F8F8F8" filter="url(#fvjy8kkbx5q8z)" height="30.2969" style="stroke:#383838;stroke-width:1.5;" width="99" x="459.5" y="262.0938"/><text fill="#000000" font-family="sans-serif" font-size="14" lengthAdjust="spacing" textLength="85" x="466.5" y="282.0889">ProjectStore</text><rect fill="#FFFFFF" filter="url(#fvjy8kkbx5q8z)" height="173.6641" style="stroke:#383838;stroke-width:1.0;" width="10" x="211" y="71.4297"/><rect fill="#FFFFFF" filter="url(#fvjy8kkbx5q8z)" height="130.5313" style="stroke:#383838;stroke-width:1.0;" width="10" x="343" y="100.5625"/><rect fill="#FFFFFF" filter="url(#fvjy8kkbx5q8z)" height="29.1328" style="stroke:#383838;stroke-width:1.0;" width="10" x="506" y="129.6953"/><rect fill="#FFFFFF" filter="url(#fvjy8kkbx5q8z)" height="29.1328" style="stroke:#383838;stroke-width:1.0;" width="10" x="506" y="187.9609"/><polygon fill="#383838" points="199,67.4297,209,71.4297,199,75.4297,203,71.4297" style="stroke:#383838;stroke-width:1.0;"/><line style="stroke:#383838;stroke-width:1.0;" x1="30" x2="205" y1="71.4297" y2="71.4297"/><text fill="#000000" font-family="sans-serif" font-size="13" lengthAdjust="spacing" textLength="162" x="37" y="66.3638">click save or enter Ctrl+S</text><polygon fill="#383838" points="331,96.5625,341,100.5625,331,104.5625,335,100.5625" style="stroke:#383838;stroke-width:1.0;"/><line style="stroke:#383838;stroke-width:1.0;" x1="221" x2="337" y1="100.5625" y2="100.5625"/><text fill="#000000" font-family="sans-serif" font-size="13" lengthAdjust="spacing" textLength="103" x="228" y="95.4966">write_resource()</text><polygon fill="#383838" points="494,125.6953,504,129.6953,494,133.6953,498,129.6953" style="stroke:#383838;stroke-width:1.0;"/><line style="stroke:#383838;stroke-width:1.0;" x1="353" x2="500" y1="129.6953" y2="129.6953"/><text fill="#000000" font-family="sans-serif" font-size="13" lengthAdjust="spacing" textLength="134" x="360" y="124.6294">get_resource_by_id()</text><polygon fill="#383838" points="364,154.8281,354,158.8281,364,162.8281,360,158.8281" style="stroke:#383838;stroke-width:1.0;"/><line style="stroke:#383838;stroke-width:1.0;stroke-dasharray:2.0,2.0;" x1="358" x2="510" y1="158.8281" y2="158.8281"/><text fill="#000000" font-family="sans-serif" font-size="13" lengthAdjust="spacing" textLength="59" x="370" y="153.7622">Resource</text><polygon fill="#383838" points="494,183.9609,504,187.9609,494,191.9609,498,187.9609" style="stroke:#383838;stroke-width:1.0;"/><line style="stroke:#383838;stroke-width:1.0;" x1="353" x2="500" y1="187.9609" y2="187.9609"/><text fill="#000000" font-family="sans-serif" font-size="13" lengthAdjust="spacing" textLength="73" x="360" y="182.895">find_by_id()</text><polygon fill="#383838" points="364,213.0938,354,217.0938,364,221.0938,360,217.0938" style="stroke:#383838;stroke-width:1.0;"/><line style="stroke:#383838;stroke-width:1.0;stroke-dasharray:2.0,2.0;" x1="358" x2="510" y1="217.0938" y2="217.0938"/><text fill="#000000" font-family="sans-serif" font-size="13" lengthAdjust="spacing" textLength="44" x="370" y="212.0278">Project</text><polygon fill="#383838" points="232,227.0938,222,231.0938,232,235.0938,228,231.0938" style="stroke:#383838;stroke-width:1.0;"/><line style="stroke:#383838;stroke-width:1.0;stroke-dasharray:2.0,2.0;" x1="226" x2="347" y1="231.0938" y2="231.0938"/><polygon fill="#383838" points="41,241.0938,31,245.0938,41,249.0938,37,245.0938" style="stroke:#383838;stroke-width:1.0;"/><line style="stroke:#383838;stroke-width:1.0;stroke-dasharray:2.0,2.0;" x1="35" x2="215" y1="245.0938" y2="245.0938"/><!--MD5=[5fcb0299c6652d6c1b5cecfd32e5f334]
@startuml

skinparam monochrome true

User -> ProjectView: click save or enter Ctrl+S
activate ProjectView

ProjectView -> ProjectController: write_resource()
activate ProjectController

ProjectController -> ProjectStore: get_resource_by_id()
activate ProjectStore

ProjectStore - -> ProjectController: Resource
deactivate ProjectStore

ProjectController -> ProjectStore: find_by_id()
activate ProjectStore

ProjectStore - -> ProjectController: Project
deactivate ProjectStore

ProjectController - -> ProjectView:
deactivate ProjectController

ProjectView - -> User:
deactivate ProjectView

@enduml

PlantUML version 1.2021.4(Sun Apr 04 11:49:39 EEST 2021)
(GPL source distribution)
Java Runtime: OpenJDK Runtime Environment
JVM: OpenJDK 64-Bit Server VM
Default Encoding: UTF-8
Language: en
Country: GB
--></g></svg>